<?xml version="1.0" standalone="no"?>
<!DOCTYPE svg PUBLIC "-//W3C//DTD SVG 20010904//EN"
 "http://www.w3.org/TR/2001/REC-SVG-20010904/DTD/svg10.dtd">
<svg version="1.0" xmlns="http://www.w3.org/2000/svg"
 width="512.000000pt" height="512.000000pt" viewBox="0 0 512.000000 512.000000"
 preserveAspectRatio="xMidYMid meet">
<metadata>
Created by potrace 1.11, written by Peter Selinger 2001-2013
</metadata>
<g transform="translate(0.000000,512.000000) scale(0.100000,-0.100000)"
fill="#000000" stroke="none">
<path d="M1905 4700 c-382 -51 -707 -183 -1005 -408 -93 -70 -310 -286 -370
-368 -69 -93 -77 -105 -119 -170 -146 -227 -282 -591 -307 -824 -3 -30 -7 -57
-9 -60 -6 -10 -18 -205 -18 -295 0 -119 10 -267 22 -335 6 -30 12 -71 15 -90
9 -59 49 -223 66 -270 82 -233 154 -384 258 -542 38 -57 75 -110 83 -118 8 -8
32 -38 54 -65 98 -125 370 -363 475 -417 14 -7 27 -15 30 -19 3 -3 23 -14 45
-26 22 -11 62 -32 88 -46 95 -51 337 -141 434 -162 10 -2 50 -10 88 -18 39 -9
93 -18 120 -21 28 -4 70 -9 95 -12 71 -10 3074 -14 3080 -4 3 4 5 970 5 2147
l-1 2138 -1499 1 c-1377 2 -1511 0 -1630 -16z"/>
</g>
</svg>
